Patient4_TMGait_0pt2_02_right_16_EMG.mot
version=1
nRows=26
nColumns=33
inDegrees=no
endheader
time	1LAddLong	2LGlutMax	3LGlutMed	4LIliopsoas	5LSemiMemb	6LBicFemLong	7LRecFem	8LVastMed	9LVastLat	10LGasMed	11LTibAnt	12lTibPost	13LPeroneusLong	14LSol	15LExtDigLong	16LFlexDigLong	17RAddLong	18RGlutMax	19RGlutMed	20RIliopsoas	21RSemiMemb	22RBicFemLong	23RRecFem	24RVastMed	25RVastLat	26RGasMed	27RTibAnt	28RTibPost	29RPeroneusLong	30RSol	31RExtDigLong	32RFlexDigLong
35.55	0.020599	0.097961	-0.049286	0.020294	-0.004425	-0.04715	-0.055389	-0.011292	-0.018005	0.05188	0.034485	0.025024	-0.74631	0.10208	-0.072937	-0.003357	0.042114	-0.090637	0.15335	-0.008698	0.17014	-0.066376	-0.26382	-0.002289	-0.003052	-0.014343	0.56519	-0.008545	-0.097656	-0.12711	-0.001678	0.000458
35.551	0.020142	0.10803	-0.12268	0.018005	-0.016479	-0.03067	-0.13962	-0.005798	0.22324	0.051727	-0.00885	0.030823	-0.12772	-0.029602	-0.14648	-0.008392	0.060425	-0.12909	-0.12177	0.008545	0.17395	-0.070038	-0.242	0.010529	0.005035	-0.0177	0.33875	-0.003967	0.015869	-0.038605	0.000305	-0.000305
35.552	0.015564	0.12619	-0.12177	0.011902	-0.012512	-0.015106	-0.13306	0.000916	0.39841	0.068359	-0.018463	0.026093	0.010986	0.10605	-0.077057	0.023346	0.032959	-0.12146	-0.23941	-0.06485	0.15869	-0.059967	-0.215	-0.015564	0.006104	-0.016022	0.13458	-0.005341	0.001373	0.001526	-0.00473	0.007477
35.553	0.02121	0.20599	-0.033417	-0.00473	-0.00946	-0.016937	-0.12863	0.015259	0.37628	0.074615	-0.013123	0.022736	-0.3038	-0.027771	-0.063171	0.005341	-0.015411	-0.15595	-0.43976	-0.093231	0.17685	-0.072937	-0.21942	-0.00946	0.012512	-0.009613	-0.033264	-0.003967	0.024567	0.015411	-0.002136	0.00351
35.554	0.013123	0.1564	-0.13916	-0.002136	0.021515	0.002747	-0.055542	0.041046	0.36087	0.028687	-0.011749	0.018616	-0.21057	-0.050354	-0.037384	0.001678	-0.035706	-0.20767	-0.78613	-0.068054	0.18066	-0.06134	-0.23575	-0.037079	0.005646	-0.020447	-0.1149	-0.003204	0.061646	0.040741	0.002136	0.001984
35.555	0.007935	0.18143	-0.22919	-0.01236	-0.009766	0.0383	0.028381	0.046387	0.39902	0.036926	-0.008545	0.013885	-0.48309	-0.20874	-0.033569	0.006256	-0.021667	-0.20767	-0.30609	-0.063171	0.2005	-0.063477	-0.25024	0.000458	0.010071	-0.015411	-0.052338	-0.00412	0.037079	-0.000763	-0.003357	0.003357
35.556	0.007019	0.15701	-0.12711	-0.009308	-0.003357	0.063171	0.11505	0.056	0.30731	0.071564	0.006561	0.016174	-0.17639	-0.31357	-0.022278	-0.007019	-0.006409	-0.21652	-0.28427	0.057373	0.22919	-0.054169	-0.25528	-0.001678	0.009308	-0.014954	0.014191	0.000153	-0.011749	-0.020752	-0.003662	0.000458
35.557	-0.000458	0.14465	0.049896	0.039368	0.029907	0.077515	0.20279	0.043488	0.037384	0.10559	0.018463	0.02243	-0.072021	-0.30594	-0.010529	-0.014343	-0.015106	-0.19119	-0.14191	-0.08728	0.23163	-0.039978	-0.215	-0.01358	0.011292	-0.013275	0.10986	-0.001373	-0.063629	-0.003967	0.007172	-0.002747
35.558	-0.002136	0.086212	0.11414	0.048676	0.042725	0.076599	0.25589	0.016174	-0.44556	0.072632	0.013733	0.021973	-0.058746	-0.30304	0.058899	-0.008698	0.000763	-0.215	-0.28885	-0.11002	0.25436	-0.041809	-0.25574	0.021362	-0.00061	-0.008545	0.29144	-0.001526	-0.039978	-0.035248	0.003052	-0.003815
35.559	-0.015564	0.053711	0.022583	0.011597	0.01236	0.098877	0.15411	-0.021667	-0.64148	0.034485	0.005341	0.032654	-0.00885	-0.11108	0.017395	-0.001831	-0.003357	-0.2063	-0.5658	-0.06012	0.29282	-0.028381	-0.31937	0.000763	0.012665	-0.007324	0.29907	-0.003357	-0.030365	-0.057373	-0.001831	-0.010986
35.56	-0.009155	0.019684	-0.016479	-0.012817	-0.003052	0.05661	0.159	-0.034027	-0.44861	0.036774	0.013275	0.026703	-0.15915	0.11765	0.031281	-0.005951	0.000305	-0.2121	-0.63873	-0.016632	0.29968	-0.046387	-0.28122	0.0383	0.005951	-0.007172	0.39291	-0.003204	-0.007324	-0.04715	0.002289	-0.002594
35.561	-0.0177	0.033417	0.03418	-0.011444	-0.011597	0.056763	0.2182	-0.023804	-0.34637	-0.00351	0.023651	0.032806	0.1268	0.07782	0.042267	-0.005341	-0.004883	-0.18768	-0.48233	0.057678	0.30807	-0.034637	-0.35492	0.024261	0.011749	0.000305	0.32837	-0.002747	0.02121	-0.047455	-0.001068	0.001526
35.562	-0.023346	0.025177	-0.063934	0.024261	-0.002899	0.055695	0.18387	-0.006104	-0.19806	-0.007172	0.005341	0.02594	0.19928	0.13809	0.06897	-0.001373	-0.015411	-0.17777	-0.46768	0.11932	0.3096	-0.04715	-0.31693	0.036774	0.018616	-0.001984	-0.35278	-0.002289	0.067902	-0.11108	-0.001984	-0.002899
35.563	-0.023346	-0.024872	0.036163	0.026093	0.006866	0.047913	0.18662	0.006256	-0.004272	0.003967	0.004272	0.02594	-0.18387	0.12207	0.027771	-0.009003	-0.018616	-0.14938	-0.24826	0.049896	0.30868	-0.041351	-0.30807	0.047607	0.019836	0.001831	0.058594	0.003967	0.14954	-0.17868	-0.00061	-0.000153
35.564	-0.010529	-0.029755	0.17288	0.013275	0.010376	0.12497	0.11536	0.005188	0.059814	0.009003	-0.009003	0.034485	-0.13825	0.14755	-0.02182	0.014343	-0.013275	-0.10117	-0.35416	-0.034027	0.30716	-0.051117	-0.35843	0.06546	0.017548	-0.002136	0.081024	0.001373	0.06546	-0.17364	-0.002747	-0.005035
35.565	0.001373	-0.048065	-0.055237	0.005646	0.010834	0.024109	0.0354	0.011444	-0.031433	-0.028687	0.000305	0.019989	-0.010986	0.18723	-0.00885	0.002747	-0.010529	-0.10895	-0.69	-0.050049	0.30655	-0.043793	-0.37155	0.036011	0.001984	-0.014343	-0.02594	-0.003815	-0.078583	-0.096436	-0.004272	-0.010071
35.566	0.006561	-0.040131	-0.12314	0.000458	0.017853	-0.08728	-0.045776	0.007324	-0.18555	0.000916	0.014954	0.020294	0.033875	0.097351	-0.00885	-0.006714	0.000458	-0.091248	-0.66009	-0.080872	0.30762	-0.046997	-0.40665	0.03418	0.015411	-0.015259	-0.10483	0.000763	-0.04776	-0.037384	-0.004425	-0.009918
35.567	0.011749	-0.037537	-0.071106	0.010223	-0.008545	-0.044556	-0.10269	0.005646	-0.1712	0.017853	0.025177	0.021057	-0.13992	0.062561	-0.046539	0.002441	-0.018005	-0.11765	-0.61081	0.018616	0.30579	-0.033417	-0.39002	0.034027	0.001068	-0.004272	-0.51163	0.005798	0.00351	-0.035553	-0.002899	-0.00351
35.568	0.007324	-0.029144	0.069885	-0.001831	-0.039825	-0.036011	-0.14496	-0.00351	-0.03418	-0.001984	0.007019	0.024872	0.20783	0.062408	-0.056763	0.002441	-0.020905	-0.085449	-0.24567	0.13199	0.30777	-0.061493	-0.38284	0.032043	0.011139	-0.003204	-0.17136	0.001831	-0.10101	0.012207	-0.000763	0.002441
35.569	0	-0.050812	0.21042	0.000763	-0.065002	0.016632	-0.055389	-0.007324	0.046997	-0.039825	-0.001984	0.016785	0.17868	0.047455	-0.013733	0.002289	-0.00473	-0.10925	-0.17609	0.12299	0.33936	-0.054321	-0.38666	0.02655	0.00885	-0.010376	-0.062408	0.004883	-0.075989	0.06958	-0.000305	-0.007629
35.57	-0.011902	-0.087128	0.060272	-0.007782	-0.10757	0.047607	0.056	-0.010376	0.018311	-0.008392	0.00412	0.023346	-0.14648	0.056915	-0.05188	-0.005341	-0.00824	-0.14893	-0.52994	0.15869	0.35385	-0.041656	-0.43152	-0.010529	0.013428	-0.00824	-0.013275	0.005035	0.036011	0.071106	-0.00061	-0.004272
35.571	-0.007629	-0.10208	0.019684	-0.021362	-0.049286	-0.058746	0.1355	-0.00946	0.02182	-0.029755	0.012207	0.03067	-0.12207	-0.049286	-0.063477	0.004272	-0.009308	-0.19806	-0.66498	0.10529	0.34088	-0.048218	-0.39291	-0.029602	0.023499	-0.008545	0.043335	0.005493	0.005646	0.12085	-0.001068	0.001831
35.572	-0.014038	-0.10605	0.094147	-0.024414	-0.013885	-0.082245	0.12466	-0.017242	0.026398	-0.050354	0.015869	0.007172	-0.051727	-0.058289	0.11002	-0.005035	-0.00412	-0.12146	-0.63477	0.065613	0.34576	-0.049591	-0.3595	-0.034027	0.024109	-0.008698	-0.069885	0.005493	0.025787	0.12436	0.00061	0.004883
35.573	-0.016174	-0.079803	0.065765	-0.003052	-0.005646	-0.10025	0.10559	-0.012817	0.016632	-0.046082	0.028381	0.010681	-0.20493	0.007477	0.14587	0.010529	0.007629	-0.17181	-0.62958	0.091095	0.34347	-0.055542	-0.33127	-0.024414	0.019226	-0.004578	-0.072784	0.00824	0.13016	0.015259	0.001373	0.010681
35.574	-0.009003	-0.053558	0.016174	0.039368	0.054016	-0.089417	0.099487	-0.009308	-0.008087	-0.057831	0.024261	0.003204	-0.2803	0.065155	0.077667	0.000305	0.003967	-0.13977	-0.61508	0.14206	0.33966	-0.05249	-0.31113	-0.007477	0.016785	-0.001678	-0.021667	0.007629	0.15533	-0.040588	0.000153	0.025024
35.575	-0.006256	-0.041809	-0.010834	0.050354	0.074158	-0.096893	0.07843	-0.000458	-0.007324	-0.042572	0.026093	0.006866	0.026703	0.062103	-0.024872	0.005035	0.005493	-0.17273	-0.63705	0.059357	0.30884	-0.060272	-0.28778	-0.039673	0.016632	-0.00885	-0.18875	0.007019	0.10513	-0.057831	-0.00061	0.032806
